<?xml version="1.0" encoding="UTF-8"?>
<!DOCTYPE svg PUBLIC "-//W3C//DTD SVG 1.1//EN" "http://www.w3.org/Graphics/SVG/1.1/DTD/svg11.dtd">
<!-- Creator: CorelDRAW 2021 (64-Bit) -->
<svg xmlns="http://www.w3.org/2000/svg" xml:space="preserve" width="73.2518mm" height="53.538mm" version="1.1" style="shape-rendering:geometricPrecision; text-rendering:geometricPrecision; image-rendering:optimizeQuality; fill-rule:evenodd; clip-rule:evenodd"
viewBox="0 0 1267.01 926.03"
 xmlns:xlink="http://www.w3.org/1999/xlink"
 xmlns:xodm="http://www.corel.com/coreldraw/odm/2003">
 <defs>
  <style type="text/css">
   <![CDATA[
    .str0 {stroke:#A63828;stroke-width:1.32;stroke-miterlimit:22.9256}
    .fil0 {fill:#EBECEC}
    .fil1 {fill:#A63828}
   ]]>
  </style>
 </defs>
 <g id="Capa_x0020_1">
  <metadata id="CorelCorpID_0Corel-Layer"/>
  <g id="_2416068961840">
   <ellipse class="fil0" cx="718.42" cy="463.02" rx="444.92" ry="463.02"/>
   <g>
    <path class="fil1 str0" d="M1.1 273.51c0.87,2.87 192.71,179.65 449,62.64 304.06,-148.66 447.92,82.83 447.14,81.49 -101.42,-189.93 -201.6,-218.95 -456.55,-134.9 -129.76,46.35 -222.91,108.03 -439.59,-9.24z"/>
    <path class="fil1 str0" d="M400.43 511.18c-6.09,-3.65 244.67,271.6 367.7,87.12 135.35,92.73 210.45,24.35 212.96,16.94 39.03,25.75 284.01,76.91 285.12,72.42 -133.16,-31.97 -261.94,-88.39 -324.37,-140.87 9.53,89.65 -152.52,80.32 -227.45,-34.71 24.25,132.48 -147.42,169.15 -313.96,-0.89z"/>
   </g>
  </g>
 </g>
</svg>
