<?xml version="1.0" encoding="UTF-8"?>
<!DOCTYPE svg PUBLIC "-//W3C//DTD SVG 1.1//EN" "http://www.w3.org/Graphics/SVG/1.1/DTD/svg11.dtd">
<!-- Creator: CorelDRAW 2021 (64-Bit) -->
<svg xmlns="http://www.w3.org/2000/svg" xml:space="preserve" width="235.225mm" height="40.4488mm" version="1.1" style="shape-rendering:geometricPrecision; text-rendering:geometricPrecision; image-rendering:optimizeQuality; fill-rule:evenodd; clip-rule:evenodd"
viewBox="0 0 16774.73 2884.55"
 xmlns:xlink="http://www.w3.org/1999/xlink"
 xmlns:xodm="http://www.corel.com/coreldraw/odm/2003">
 <defs>
  <style type="text/css">
   <![CDATA[
    .str0 {stroke:#A63828;stroke-width:5.43;stroke-miterlimit:22.9256}
    .fil0 {fill:#A63828}
    .fil1 {fill:#2B2A29;fill-rule:nonzero}
   ]]>
  </style>
 </defs>
 <g id="Capa_x0020_1">
  <metadata id="CorelCorpID_0Corel-Layer"/>
  <g id="_2516727336272">
   <g id="_2450903442704">
    <path class="fil0 str0" d="M8059.02 3.81c-61.25,-35.89 2462.07,2670.69 3700.2,856.65 1362.06,911.84 2117.74,239.39 2143.01,166.58 392.74,253.17 2858,756.25 2869.19,712.08 -1339.98,-314.34 -2635.88,-869.11 -3264.15,-1385.22 95.87,881.55 -1534.8,789.83 -2288.84,-341.34 244.01,1302.65 -1483.5,1663.28 -3159.41,-8.76z"/>
    <path class="fil0 str0" d="M4.52 340.12c8.29,27.3 1831,1706.87 4266.06,595.19 2888.86,-1412.42 4255.75,786.93 4248.32,774.29 -963.63,-1804.57 -1915.4,-2080.32 -4337.74,-1281.71 -1232.91,440.39 -2117.93,1026.42 -4176.65,-87.77z"/>
    <path class="fil1" d="M325.18 2415.56l-42.43 43.72c-35.2,-34.07 -69.75,-51.11 -103.35,-51.11 -21.37,0 -39.7,7.07 -54.97,21.22 -15.27,13.98 -22.98,30.54 -22.98,49.34 0,16.55 6.27,32.47 18.81,47.42 12.54,15.43 39.06,33.42 79.24,54.16 48.86,25.23 82.12,49.83 99.8,73.29 17.2,23.79 25.88,50.63 25.88,80.36 0,42.11 -14.78,77.63 -44.36,106.88 -29.57,29.09 -66.54,43.72 -110.9,43.72 -29.57,0 -57.71,-6.43 -84.71,-19.29 -26.84,-12.86 -49.02,-30.54 -66.7,-53.2l41.47 -47.09c33.59,37.93 69.43,56.89 107.2,56.89 26.36,0 48.86,-8.51 67.51,-25.39 18.48,-16.87 27.81,-36.8 27.81,-59.63 0,-18.81 -6.1,-35.52 -18.32,-50.31 -12.37,-14.46 -40.02,-32.63 -83.09,-54.48 -46.29,-23.79 -77.79,-47.25 -94.35,-70.4 -16.72,-23.14 -25.07,-49.5 -25.07,-79.24 0,-38.73 13.34,-70.88 39.86,-96.59 26.68,-25.55 60.27,-38.41 100.93,-38.41 47.26,0 94.83,22.66 142.73,68.15z"/>
    <path id="_1" class="fil1" d="M464.04 2149.71c14.95,0 27.65,5.31 38.25,16.07 10.61,10.6 15.91,23.63 15.91,38.57 0,14.78 -5.3,27.64 -15.91,38.25 -10.6,10.77 -23.31,16.07 -38.25,16.07 -14.78,0 -27.32,-5.31 -37.93,-16.07 -10.6,-10.61 -15.91,-23.47 -15.91,-38.25 0,-14.95 5.31,-27.97 15.91,-38.57 10.61,-10.77 23.15,-16.07 37.93,-16.07zm-32.63 210.23l65.57 0 0 512.07 -65.57 0 0 -512.07z"/>
    <polygon id="_2" class="fil1" points="624.45,2162.25 690.02,2162.25 690.02,2872.01 624.45,2872.01 "/>
    <path id="_3" class="fil1" d="M850.11 2149.71c14.95,0 27.65,5.31 38.25,16.07 10.61,10.6 15.91,23.63 15.91,38.57 0,14.78 -5.3,27.64 -15.91,38.25 -10.6,10.77 -23.31,16.07 -38.25,16.07 -14.78,0 -27.32,-5.31 -37.93,-16.07 -10.6,-10.61 -15.91,-23.47 -15.91,-38.25 0,-14.95 5.31,-27.97 15.91,-38.57 10.61,-10.77 23.15,-16.07 37.93,-16.07zm-32.63 210.23l65.57 0 0 512.07 -65.57 0 0 -512.07z"/>
    <path id="_4" class="fil1" d="M1517.75 2466.35l-52.23 32.46c-45.33,-59.79 -107.21,-89.68 -185.64,-89.68 -62.67,0 -114.75,20.09 -156.21,60.11 -41.31,40.02 -62.04,88.56 -62.04,145.78 0,37.29 9.48,72.33 28.61,105.12 18.96,32.78 45.16,58.34 78.43,76.51 33.11,18.16 70.39,27.16 111.7,27.16 75.54,0 137.26,-29.89 185.16,-89.68l52.23 34.39c-24.59,36.8 -57.54,65.25 -98.84,85.66 -41.47,20.25 -88.56,30.38 -141.44,30.38 -81.32,0 -148.66,-25.72 -202.18,-76.99 -53.52,-51.43 -80.21,-113.79 -80.21,-187.41 0,-49.34 12.54,-95.31 37.61,-137.74 24.92,-42.43 59.31,-75.54 103.03,-99.33 43.88,-23.79 92.74,-35.68 146.9,-35.68 34.07,0 66.86,5.14 98.52,15.43 31.51,10.29 58.34,23.79 80.36,40.34 22.18,16.56 40.83,37.61 56.25,63.17z"/>
    <path id="_5" class="fil1" d="M1886.94 2347.41c78.92,0 144.49,28.45 196.4,85.51 47.25,51.91 70.88,113.47 70.88,184.51 0,71.36 -24.91,133.73 -74.89,187.08 -49.83,53.36 -114.12,80.04 -192.39,80.04 -78.76,0 -143.2,-26.68 -193.03,-80.04 -49.98,-53.36 -74.9,-115.72 -74.9,-187.08 0,-70.72 23.63,-132.12 70.89,-184.03 51.91,-57.38 117.65,-85.98 197.05,-85.98zm-0.32 64.61c-54.81,0 -101.74,20.09 -141.12,60.43 -39.38,40.34 -58.99,89.2 -58.99,146.42 0,36.8 9,71.2 26.84,103.18 18,31.83 42.27,56.42 72.81,73.77 30.37,17.36 63.97,26.04 100.45,26.04 36.48,0 70.07,-8.68 100.45,-26.04 30.54,-17.36 54.8,-41.95 72.81,-73.77 17.84,-31.98 26.84,-66.38 26.84,-103.18 0,-57.22 -19.77,-106.08 -59.3,-146.42 -39.38,-40.34 -86.31,-60.43 -140.79,-60.43z"/>
    <path id="_6" class="fil1" d="M2275.57 2359.94l65.58 0 0 91.78c26.51,-35.04 55.77,-61.24 87.75,-78.44 32.15,-17.19 67.03,-25.87 104.8,-25.87 38.42,0 72.49,9.64 102.22,29.09 29.74,19.45 51.75,45.65 65.9,78.59 14.14,32.79 21.22,84.06 21.22,153.65l0 263.27 -65.58 0 0 -243.98c0,-58.83 -2.57,-98.21 -7.55,-117.97 -8.04,-33.75 -22.83,-59.15 -44.52,-76.35 -21.7,-17.04 -49.98,-25.55 -84.86,-25.55 -40.02,0 -75.86,13.18 -107.36,39.54 -31.66,26.2 -52.56,58.83 -62.53,97.72 -6.27,25.39 -9.48,71.68 -9.48,139.03l0 187.57 -65.58 0 0 -512.07z"/>
    <path id="_7" class="fil1" d="M3397.59 2359.94l65.58 0 0 88.56c22.98,-32.63 46.45,-56.58 70.71,-71.68 33.27,-19.61 68.31,-29.41 104.96,-29.41 24.91,0 48.37,4.82 70.71,14.62 22.34,9.65 40.51,22.66 54.65,38.74 14.14,16.23 26.36,39.38 36.8,69.59 21.86,-40.19 49.34,-70.72 82.13,-91.62 32.95,-20.89 68.31,-31.34 106.24,-31.34 35.36,0 66.7,9 93.7,26.84 27.16,17.84 47.25,42.75 60.43,74.74 13.18,31.98 19.77,79.89 19.77,143.85l0 279.18 -67.5 0 0 -279.34c0,-54.97 -3.86,-92.58 -11.74,-113.15 -7.87,-20.57 -21.22,-37.13 -40.18,-49.67 -18.97,-12.54 -41.47,-18.81 -67.83,-18.81 -31.83,0 -61.07,9.48 -87.44,28.29 -26.51,18.81 -45.8,43.88 -58.02,75.22 -12.22,31.34 -18.32,83.74 -18.32,157.03l0 200.43 -65.58 0 0 -261.98c0,-61.71 -3.85,-103.67 -11.57,-125.85 -7.72,-22.18 -21.06,-39.86 -40.19,-53.2 -19.28,-13.34 -41.95,-19.93 -68.3,-19.93 -30.54,0 -58.99,9.16 -85.51,27.48 -26.52,18.33 -46.13,43.08 -58.83,74.09 -12.7,31.02 -19.13,78.59 -19.13,142.56l0 216.82 -65.58 0 0 -512.07z"/>
    <path id="_8" class="fil1" d="M4734.51 2702.29l55.61 29.25c-18.32,35.52 -39.38,64.29 -63.33,86.15 -23.95,21.7 -50.79,38.42 -80.68,49.83 -30.05,11.41 -63.8,17.04 -101.58,17.04 -83.89,0 -149.31,-27.32 -196.56,-81.97 -47.26,-54.65 -70.89,-116.37 -70.89,-185.16 0,-64.77 20.1,-122.63 60.11,-173.26 50.63,-64.45 118.62,-96.75 203.64,-96.75 87.59,0 157.67,33.1 209.9,99.16 37.13,46.61 56.1,104.8 56.74,174.71l-462.89 0c1.29,59.3 20.42,107.85 57.22,145.62 36.96,37.93 82.61,56.9 136.77,56.9 26.2,0 51.76,-4.5 76.51,-13.51 24.75,-9 45.81,-20.89 63.17,-35.84 17.36,-14.95 36.16,-38.9 56.25,-72.17zm0.64 -137.9c-8.84,-35.2 -21.69,-63.17 -38.57,-84.22 -17.04,-21.06 -39.38,-37.93 -67.18,-50.79 -27.81,-12.86 -57.06,-19.29 -87.59,-19.29 -50.63,0 -94.02,16.07 -130.35,48.38 -26.68,23.63 -46.61,58.83 -60.27,105.92l383.97 0z"/>
    <path id="_9" class="fil1" d="M5439.93 2162.25l0 709.76 -65.58 0 0 -88.08c-27.64,33.6 -58.51,58.83 -92.9,75.54 -34.23,16.72 -71.83,25.07 -112.5,25.07 -72.33,0 -134.21,-26.2 -185.48,-78.59 -51.27,-52.56 -76.83,-116.21 -76.83,-191.43 0,-73.45 25.88,-136.45 77.63,-188.69 51.59,-52.24 113.8,-78.43 186.6,-78.43 41.95,0 79.88,9 113.95,26.84 33.91,17.84 63.8,44.69 89.52,80.53l0 -292.52 65.58 0zm-263.91 248.8c-36.64,0 -70.56,9.01 -101.42,27.01 -31.02,17.84 -55.61,43.07 -73.93,75.54 -18.33,32.46 -27.48,66.86 -27.48,103.18 0,35.84 9.16,70.24 27.64,103.03 18.48,32.78 43.24,58.34 74.42,76.51 31.19,18.32 64.61,27.48 100.3,27.48 35.84,0 70.07,-9 102.21,-27.16 32.31,-18.16 57.06,-42.6 74.42,-73.62 17.36,-30.86 26.04,-65.74 26.04,-104.47 0,-58.99 -19.45,-108.33 -58.51,-148.03 -38.89,-39.69 -86.79,-59.47 -143.68,-59.47z"/>
    <path id="_10" class="fil1" d="M5612.38 2149.71c14.95,0 27.65,5.31 38.25,16.07 10.61,10.6 15.91,23.63 15.91,38.57 0,14.78 -5.3,27.64 -15.91,38.25 -10.6,10.77 -23.31,16.07 -38.25,16.07 -14.78,0 -27.32,-5.31 -37.93,-16.07 -10.6,-10.61 -15.91,-23.47 -15.91,-38.25 0,-14.95 5.31,-27.97 15.91,-38.57 10.61,-10.77 23.15,-16.07 37.93,-16.07zm-32.63 210.23l65.57 0 0 512.07 -65.57 0 0 -512.07z"/>
    <path id="_11" class="fil1" d="M6292.57 2359.94l0 512.07 -65.57 0 0 -88.08c-27.65,33.6 -58.51,58.83 -92.9,75.54 -34.24,16.72 -71.84,25.07 -112.5,25.07 -72.33,0 -134.21,-26.2 -185.48,-78.59 -51.27,-52.56 -76.83,-116.21 -76.83,-191.43 0,-73.45 25.87,-136.45 77.63,-188.69 51.59,-52.24 113.79,-78.43 186.6,-78.43 41.95,0 79.88,8.84 113.95,26.51 33.92,17.68 63.81,44.36 89.53,80.21l0 -94.19 65.57 0zm-263.91 51.11c-36.64,0 -70.56,9.01 -101.42,27.01 -31.02,17.84 -55.61,43.07 -73.94,75.54 -18.32,32.46 -27.48,66.86 -27.48,103.18 0,35.84 9.16,70.24 27.65,103.03 18.48,32.78 43.24,58.34 74.42,76.51 31.18,18.32 64.61,27.48 100.3,27.48 35.84,0 70.07,-9 102.22,-27.16 32.31,-18.16 57.06,-42.6 74.42,-73.62 17.36,-30.86 26.04,-65.74 26.04,-104.47 0,-58.99 -19.45,-108.33 -58.51,-148.03 -38.89,-39.69 -86.79,-59.47 -143.69,-59.47z"/>
   </g>
  </g>
 </g>
</svg>
